<svg width="250" height="50" xmlns="http://www.w3.org/2000/svg" class="iconLeft">
 <!---->
 <defs>
  <!---->
 </defs>
 <defs>
  <!---->
 </defs>
 <defs>
  <!---->
 </defs>
 <!---->
 <g>
  <title>background</title>
  <rect fill="none" id="canvas_background" height="52" width="252" y="-1" x="-1"/>
 </g>
 <g>
  <title>Layer 1</title>
  <rect x="0" y="0" id="svg_1" class="logo-background-square" height="300" width="300" fill="transparent"/>
  <g transform="matrix(2.6696832180023193,0,0,2.6696832180023193,111.16515480566012,126.82798304219287) " fill="#22C4D6" id="ec5d15f4-089a-472f-802c-8c1abba2924c">
   <path id="svg_2" d="m-6.997289,-43.554916l0,0q1.33,0 2.21,0.64l0,0l0,0q0.89,0.63 0.89,1.81l0,0l0,0q0,0.89 -0.44,1.5l0,0l0,0q-0.43,0.61 -1.14,0.91l0,0l0,0q-0.71,0.29 -1.5,0.29l0,0l0,0q-0.17,0 -0.46,-0.02l0,0l0,0q-0.29,-0.02 -0.44,-0.06l0,0l0,2.63l1.48,0.29l0,0.59l-4.32,0l0,-0.57l1.2,-0.31l0,-6.81l-1.22,-0.3l0,-0.59l3.74,0zm-0.88,4.44l0,0q0.22,0.05 0.57,0.05l0,0l0,0q0.79,0 1.25,-0.52l0,0l0,0q0.46,-0.51 0.46,-1.42l0,0l0,0q0,-0.83 -0.4,-1.3l0,0l0,0q-0.4,-0.47 -1.05,-0.47l0,0l0,0q-0.45,0 -0.83,0.09l0,0l0,3.57zm7.43,-1.92l0,0q-0.58,0 -1.13,0.18l0,0l-0.32,1.18l-0.69,0l-0.24,-1.8l0,0q1.36,-0.51 2.82,-0.51l0,0l0,0q1.09,0 1.65,0.36l0,0l0,0q0.56,0.36 0.56,1.3l0,0l0,4.31l1.15,0.34l0,0.53l0,0q-0.9,0.24 -1.51,0.24l0,0l0,0q-0.44,0 -0.79,-0.2l0,0l0,0q-0.35,-0.19 -0.45,-0.56l0,0l0,0q-0.57,0.41 -1.09,0.62l0,0l0,0q-0.52,0.21 -1.1,0.21l0,0l0,0q-0.75,0 -1.17,-0.48l0,0l0,0q-0.43,-0.49 -0.43,-1.24l0,0l0,0q0,-0.67 0.4,-1.24l0,0l0,0q0.4,-0.57 1.39,-0.76l0,0l1.96,-0.38l0,-1.05l0,0q0,-0.56 -0.22,-0.81l0,0l0,0q-0.23,-0.24 -0.79,-0.24l0,0zm-0.04,3.06l0,0q-0.57,0.13 -0.82,0.44l0,0l0,0q-0.24,0.31 -0.24,0.78l0,0l0,0q0,0.88 0.82,0.88l0,0l0,0q0.3,0 0.66,-0.13l0,0l0,0q0.37,-0.13 0.63,-0.3l0,0l0,-1.89l-1.05,0.22zm8.26,-2.94l0,0q-0.61,0 -1.12,0.24l0,0l0,4.8l1.61,0.3l0,0.6l-4.39,0l0,-0.59l1.14,-0.31l0,-4.87l-1.14,-0.17l0,-0.54l2.18,-0.53l0.59,0l0,0.64l0,0q0.47,-0.31 1.05,-0.5l0,0l0,0q0.57,-0.19 1.06,-0.19l0,0l0,0q0.3,0 0.39,0.02l0,0l-0.25,2.34l-0.82,0l-0.3,-1.24zm6.08,5.77l0,0q-0.42,0.13 -1.05,0.21l0,0l0,0q-0.63,0.09 -1.01,0.09l0,0l0,0q-0.69,0 -0.94,-0.31l0,0l0,0q-0.26,-0.31 -0.26,-0.8l0,0l0,-5l-1.01,0l0,-0.6l1.15,-0.46l0.74,-1.4l0.74,0l0,1.55l1.83,0l0,1.01l-1.83,-0.11l0,4.93l1.64,0.3l0,0.59zm6.76,-7.84l0,-0.57l3.3,0l0,0.57l-1.17,0.3l0,7.71l-1.32,0.14l-4.6,-6.68l0,5.66l1.19,0.31l0,0.57l-3.27,0l0,-0.57l1.17,-0.31l0,-6.83l-1.18,-0.3l0,-0.57l2.6,0l4.47,6.45l0,-5.58l-1.19,-0.3zm7.27,8.15l0,0q-1.74,0 -2.51,-0.95l0,0l0,0q-0.77,-0.95 -0.77,-2.61l0,0l0,0q0,-1.86 0.85,-2.73l0,0l0,0q0.84,-0.86 2.29,-0.86l0,0l0,0q1.42,0 2.08,0.64l0,0l0,0q0.66,0.64 0.66,2.02l0,0l0,0q0,0.47 -0.04,0.85l0,0l-4.08,0l0,0.38l0,0q0,1.22 0.5,1.77l0,0l0,0q0.5,0.55 1.45,0.55l0,0l0,0q0.84,0 1.99,-0.32l0,0l0.11,0.55l0,0q-1.06,0.71 -2.53,0.71l0,0zm-1.49,-4.31l2.41,-0.14l0,-0.31l0,0q0,-0.76 -0.22,-1.14l0,0l0,0q-0.21,-0.39 -0.77,-0.39l0,0l0,0q-0.77,0 -1.07,0.47l0,0l0,0q-0.31,0.47 -0.35,1.51l0,0zm8.75,-1.77l0,0q-0.61,0 -1.12,0.24l0,0l0,4.8l1.61,0.3l0,0.6l-4.39,0l0,-0.59l1.14,-0.31l0,-4.87l-1.14,-0.17l0,-0.54l2.18,-0.53l0.59,0l0,0.64l0,0q0.47,-0.31 1.05,-0.5l0,0l0,0q0.57,-0.19 1.06,-0.19l0,0l0,0q0.3,0 0.39,0.02l0,0l-0.25,2.34l-0.82,0l-0.3,-1.24zm6.64,5.28l0,0q-1.09,0.8 -2.27,0.8l0,0l0,0q-0.77,0 -1.3,-0.49l0,0l0,0q-0.53,-0.49 -0.8,-1.29l0,0l0,0q-0.27,-0.81 -0.27,-1.78l0,0l0,0q0,-1.68 0.8,-2.63l0,0l0,0q0.8,-0.96 2.24,-0.96l0,0l0,0q0.37,0 0.71,0.07l0,0l0,0q0.34,0.07 0.58,0.16l0,0l0,0q0.24,0.09 0.27,0.12l0,0l0,-2.31l-1.17,-0.16l0,-0.54l2.26,-0.55l0.54,0l0,9.18l1.14,0.34l0,0.53l0,0q-0.86,0.24 -1.53,0.24l0,0l0,0q-0.42,0 -0.77,-0.2l0,0l0,0q-0.35,-0.19 -0.43,-0.53l0,0zm-1.47,-0.22l0,0q0.4,0 0.8,-0.16l0,0l0,0q0.4,-0.15 0.63,-0.35l0,0l0,-4.39l0,0q-0.24,-0.18 -0.58,-0.29l0,0l0,0q-0.35,-0.1 -0.68,-0.1l0,0l0,0q-0.77,0 -1.17,0.72l0,0l0,0q-0.4,0.73 -0.4,2.01l0,0l0,0q0,1.19 0.34,1.87l0,0l0,0q0.34,0.69 1.06,0.69l0,0z"/>
  </g>
  <g transform="matrix(0.674071729183197,0,0,0.674071729183197,-437.5455971664926,0.5759370941001976) " fill="#22C4D6" id="07931996-6c5c-4526-be7c-ac6b405ead69">
   <path id="svg_3" d="m744.427438,48.834797c-0.586,0.587 -1.367,0.91 -2.197,0.91s-1.61,-0.323 -2.197,-0.91l-0.878,-0.878a8.065,8.065 0 0 0 -0.239,-0.251l-7.694,-7.694a2,2 0 0 0 -2.829,2.828l1.006,1.006c0.035,0.042 0.072,0.084 0.111,0.123l6.694,6.694c0.511,0.57 0.794,1.297 0.794,2.068a3.09,3.09 0 0 1 -0.911,2.198c-0.587,0.586 -1.367,0.91 -2.197,0.91s-1.61,-0.324 -2.197,-0.91l-7.694,-7.695l-0.033,-0.029l-0.299,-0.3a2,2 0 0 0 -2.829,2.829l0.165,0.165a6.072,6.072 0 0 0 -3.602,-1.401c0.001,-0.047 0.003,-0.092 0.003,-0.139a7.06,7.06 0 0 0 -2.081,-5.025a7.06,7.06 0 0 0 -5.026,-2.082c-0.457,0 -0.908,0.044 -1.348,0.128a7.078,7.078 0 0 0 -2.026,-4.18a7.063,7.063 0 0 0 -5.026,-2.081a7.06,7.06 0 0 0 -5.025,2.081l-1.086,1.086a7.054,7.054 0 0 0 -1.691,-2.708c-1.343,-1.343 -3.128,-2.082 -5.026,-2.082s-3.683,0.739 -5.025,2.082l-2.495,2.494a7.181,7.181 0 0 0 -0.336,0.363l0,-18.305l4.533,0c0.39,0 0.772,-0.114 1.098,-0.328l8.578,-5.633l10.402,-1.7l-7.991,6.363a2,2 0 0 0 -0.252,2.89c3.545,4.007 13.438,5.368 19.769,1.674l9.049,3.016l10.327,10.327l0.007,0.008l7.694,7.694c0.587,0.587 0.911,1.367 0.911,2.197s-0.324,1.61 -0.911,2.197m-17.353,10.16a2.124,2.124 0 0 1 -1.512,0.626a2.125,2.125 0 0 1 -1.513,-0.626l-1.518,-1.518a6.11,6.11 0 0 0 0.698,-2.848a6.092,6.092 0 0 0 -1.408,-3.913l5.253,5.254c0.404,0.404 0.627,0.941 0.627,1.512c0,0.572 -0.223,1.109 -0.627,1.513m-14.707,3.382c-0.404,0.404 -0.942,0.627 -1.513,0.627s-1.108,-0.223 -1.512,-0.627a2.126,2.126 0 0 1 -0.627,-1.513c0,-0.502 0.173,-0.978 0.489,-1.36l6.119,-6.119c0.088,-0.088 0.173,-0.178 0.255,-0.27a2.127,2.127 0 0 1 1.512,-0.625c0.571,0 1.109,0.222 1.513,0.626s0.626,0.941 0.626,1.513c0,0.571 -0.222,1.108 -0.626,1.512l-6.236,6.236zm-11.961,-4.126c-0.587,-0.587 -0.91,-1.367 -0.91,-2.197s0.323,-1.61 0.91,-2.197l7.694,-7.695c0.587,-0.587 1.367,-0.91 2.197,-0.91s1.61,0.323 2.197,0.91s0.91,1.367 0.91,2.197c0,0.762 -0.274,1.479 -0.772,2.046l-6.119,6.119c-0.08,0.08 -0.158,0.163 -0.233,0.247l-1.48,1.48c-0.587,0.587 -1.367,0.91 -2.197,0.91s-1.61,-0.323 -2.197,-0.91m-8.4,-6.134c-0.587,-0.587 -0.91,-1.367 -0.91,-2.197s0.323,-1.61 0.91,-2.197l7.694,-7.694c0.587,-0.587 1.367,-0.91 2.197,-0.91s1.61,0.323 2.197,0.91a3.11,3.11 0 0 1 0,4.394l-7.694,7.694a3.087,3.087 0 0 1 -2.197,0.911c-0.83,0 -1.611,-0.324 -2.197,-0.911m-7.629,-6.822a3.09,3.09 0 0 1 -0.91,-2.198c0,-0.829 0.324,-1.61 0.911,-2.197l2.494,-2.494c0.587,-0.587 1.367,-0.91 2.197,-0.91s1.61,0.323 2.197,0.91a3.11,3.11 0 0 1 0,4.394l-2.494,2.495a3.09,3.09 0 0 1 -2.197,0.91c-0.83,0 -1.61,-0.324 -2.198,-0.91m62.436,-24.409l0,20.283l-17.919,-17.92a2.012,2.012 0 0 0 -0.782,-0.483l-10.4,-3.466a1.994,1.994 0 0 0 -1.779,0.259c-3.806,2.664 -10.127,2.352 -13.548,0.762l11.519,-9.172l0.68,-0.111l0.002,0.018l17.618,-1.532l14.609,11.362zm-35.959,46.118c1.64,0 3.182,-0.639 4.341,-1.799l4.704,-4.703l1.322,1.321c1.159,1.16 2.701,1.798 4.341,1.798s3.181,-0.638 4.341,-1.798a6.106,6.106 0 0 0 1.492,-2.435a7.097,7.097 0 0 0 2.495,0.451c1.899,0 3.684,-0.74 5.026,-2.082a7.052,7.052 0 0 0 2.024,-4.13c0.421,0.077 0.853,0.118 1.29,0.118a7.055,7.055 0 0 0 4.583,-1.676l0,2.328l11.333,0l0,-4l-7.333,0l0,-38.8l7.333,0l0,-4l-11.333,0l0,8.222l-12.772,-9.934a1.997,1.997 0 0 0 -1.401,-0.414l-17.872,1.554l-0.011,-0.069l-2.521,0.412l-0.002,-0.002l-0.005,0.004l-17.872,2.92a1.99,1.99 0 0 0 -0.775,0.302l-8.434,5.538l-3.935,0l0,-8.533l-11.334,0l0,4l7.334,0l0,38.8l-7.334,0l0,4l11.334,0l0,-6.637a7.064,7.064 0 0 0 5.889,2.423a7.056,7.056 0 0 0 2.075,4.763a7.064,7.064 0 0 0 5.026,2.082c0.456,0 0.906,-0.044 1.344,-0.128a7.052,7.052 0 0 0 2.03,4.179a7.058,7.058 0 0 0 5.026,2.082c0.833,0 1.644,-0.143 2.406,-0.416a6.105,6.105 0 0 0 1.504,2.46a6.098,6.098 0 0 0 4.341,1.799"/>
  </g>
 </g>
</svg>